<?xml version="1.0" standalone="no"?>
<!DOCTYPE svg PUBLIC "-//W3C//DTD SVG 20010904//EN"
 "http://www.w3.org/TR/2001/REC-SVG-20010904/DTD/svg10.dtd">
<svg version="1.0" xmlns="http://www.w3.org/2000/svg"
 width="180.000000pt" height="180.000000pt" viewBox="0 0 180.000000 180.000000"
 preserveAspectRatio="xMidYMid meet">
<metadata>
Created by potrace 1.11, written by Peter Selinger 2001-2013
</metadata>
<g transform="translate(0.000000,180.000000) scale(0.100000,-0.100000)"
fill="#000000" stroke="none">
<path d="M540 1777 c0 -39 -27 -67 -65 -67 -48 0 -58 -24 -50 -116 8 -84 0
-104 -46 -104 -16 0 -38 -9 -49 -20 -18 -18 -20 -33 -20 -153 0 -91 4 -138 13
-149 9 -13 36 -17 120 -20 l107 -4 0 47 c0 57 4 59 113 59 45 0 88 4 95 8 18
12 26 75 13 100 -7 13 -27 23 -58 28 -46 9 -48 10 -48 44 0 33 2 35 40 40 55
8 65 16 65 54 0 17 5 37 12 44 16 16 170 16 186 0 8 -8 12 -45 12 -99 0 -97 2
-100 65 -109 35 -4 40 -9 43 -33 5 -38 -14 -57 -53 -57 -40 0 -59 -21 -59 -66
0 -63 12 -67 196 -65 182 2 243 8 256 25 5 6 12 32 14 59 l6 47 -97 0 c-53 0
-102 4 -109 9 -8 4 -16 27 -19 50 -6 45 -27 61 -78 61 -29 0 -35 16 -35 100 0
79 12 96 65 87 19 -3 37 -1 40 4 4 5 44 9 90 9 46 0 95 4 108 9 30 12 41 51
25 85 l-11 26 -148 0 c-141 0 -149 1 -163 22 -9 12 -16 33 -16 45 l0 23 -280
0 -280 0 0 -23z m-20 -316 c14 -27 13 -164 -2 -179 -13 -13 -47 -16 -65 -4 -7
4 -13 41 -14 91 -3 72 -1 85 16 97 26 20 52 17 65 -5z"/>
<path d="M536 1048 c-10 -6 -33 -12 -52 -13 -46 -5 -54 -11 -54 -49 0 -41 -24
-63 -70 -68 -32 -3 -36 -7 -45 -43 -14 -56 -22 -65 -59 -65 -42 0 -56 -15 -56
-61 0 -65 1 -66 98 -62 48 2 93 0 101 -6 8 -5 17 -29 20 -53 6 -41 8 -43 41
-46 47 -5 62 -19 58 -56 -3 -28 -6 -31 -43 -34 -22 -2 -45 -8 -51 -13 -20 -16
-23 -109 -5 -140 25 -44 6 -83 -42 -87 -42 -4 -67 -31 -67 -74 0 -31 -30 -53
-61 -45 -26 7 -49 -18 -49 -53 0 -57 13 -60 221 -60 112 0 198 4 210 10 17 9
19 22 19 98 0 96 7 112 52 112 36 0 68 32 68 68 0 15 5 33 12 40 14 14 165 16
186 3 8 -4 16 -27 19 -50 7 -48 13 -53 68 -61 l40 -5 5 -98 c4 -72 9 -100 20
-107 8 -5 101 -10 206 -10 212 0 227 4 227 59 0 40 -11 51 -58 56 -42 4 -55
17 -55 57 0 34 -24 58 -59 58 -40 0 -55 22 -46 67 10 55 6 145 -7 160 -6 7
-25 13 -42 13 -37 0 -56 15 -56 45 0 30 19 45 55 45 39 0 55 16 55 56 0 48 17
56 117 53 l88 -3 3 48 c4 57 -9 76 -52 76 -40 0 -56 16 -56 55 0 51 -11 55
-165 55 -166 0 -179 6 -173 82 l3 43 -210 6 c-116 3 -232 2 -258 -3 -28 -4
-56 -4 -66 1 -10 6 -24 5 -35 -1z m195 -368 c22 -13 25 -52 5 -70 -8 -6 -25
-10 -38 -8 -30 4 -38 56 -12 75 21 16 20 16 45 3z m355 -26 c8 -30 -11 -54
-40 -54 -46 0 -62 48 -25 73 27 20 58 10 65 -19z"/>
</g>
</svg>
